<?xml version="1.0" encoding="UTF-8"?>
<!DOCTYPE svg PUBLIC "-//W3C//DTD SVG 1.1//EN" "http://www.w3.org/Graphics/SVG/1.1/DTD/svg11.dtd">
<svg xmlns="http://www.w3.org/2000/svg" version="1.1" width="428px" height="693px" style="shape-rendering:geometricPrecision; text-rendering:geometricPrecision; image-rendering:optimizeQuality; fill-rule:evenodd; clip-rule:evenodd" xmlns:xlink="http://www.w3.org/1999/xlink">
<g><path style="opacity:0.994" fill="#c88d41" d="M 132.5,1.5 C 160.19,2.95979 187.856,4.79312 215.5,7C 233.5,15.3333 251.5,23.6667 269.5,32C 297.22,52.7203 325.22,73.0536 353.5,93C 371.667,114.5 389.833,136 408,157.5C 414.157,186.461 420.157,215.461 426,244.5C 426.667,274.167 426.667,303.833 426,333.5C 422.461,352.86 418.795,372.193 415,391.5C 403.485,400.259 392.151,409.259 381,418.5C 374.078,432.023 366.411,445.023 358,457.5C 347.456,446.121 337.122,434.455 327,422.5C 329.173,402.287 332.007,382.12 335.5,362C 331.255,340.773 326.755,319.606 322,298.5C 311.667,287.5 301.333,276.5 291,265.5C 290.333,245.833 290.333,226.167 291,206.5C 299.373,190.92 307.873,175.42 316.5,160C 301.516,148.84 286.182,138.174 270.5,128C 255.715,122.848 240.715,118.515 225.5,115C 205.159,113.257 184.825,111.424 164.5,109.5C 148.121,111.34 131.787,113.507 115.5,116C 103.332,123.585 90.9985,130.918 78.5,138C 71.2471,145.094 63.5804,151.594 55.5,157.5C 53.9707,157.471 52.804,156.804 52,155.5C 45.3333,147.5 38.6667,139.5 32,131.5C 32.9127,119.109 34.5793,106.776 37,94.5C 43.7446,80.677 50.7446,67.0103 58,53.5C 71.8333,40.3333 85.6667,27.1667 99.5,14C 110.638,9.90293 121.638,5.73626 132.5,1.5 Z"/></g>
<g><path style="opacity:0.978" fill="#c88d41" d="M 134.5,243.5 C 162.519,245.001 190.519,246.835 218.5,249C 234.983,266.984 251.65,284.817 268.5,302.5C 268.167,303.5 267.5,304.167 266.5,304.5C 245.5,296 224.5,287.5 203.5,279C 193.684,277.687 183.851,276.52 174,275.5C 162.177,278.066 150.343,280.232 138.5,282C 129.071,275.966 120.071,269.466 111.5,262.5C 111.608,261.558 111.941,260.725 112.5,260C 120.08,254.723 127.414,249.223 134.5,243.5 Z"/></g>
<g><path style="opacity:0.97" fill="#c88d41" d="M 40.5,255.5 C 41.552,255.351 42.552,255.517 43.5,256C 49.5,260.667 55.5,265.333 61.5,270C 62.5762,271.726 62.7429,273.559 62,275.5C 55.1349,282.031 48.6349,288.864 42.5,296C 37.6676,295.784 33.0009,294.617 28.5,292.5C 21.5,296.667 14.5,300.833 7.5,305C 5.59791,306.301 3.59791,306.968 1.5,307C 0.903165,305.938 0.569832,304.772 0.5,303.5C 1.4146,292.768 2.74793,282.101 4.5,271.5C 16.6848,266.337 28.6848,261.004 40.5,255.5 Z"/></g>
<g><path style="opacity:0.99" fill="#c88d41" d="M 314.5,432.5 C 316.722,432.178 318.556,432.845 320,434.5C 330.956,448.458 342.29,462.125 354,475.5C 353.462,491.505 352.462,507.505 351,523.5C 350.84,527.287 350.174,530.954 349,534.5C 332.301,561.702 315.801,589.035 299.5,616.5C 266.333,636.918 233,657.085 199.5,677C 170.694,681.995 141.861,686.829 113,691.5C 92.7434,687.394 72.5767,682.894 52.5,678C 43,667.167 33.5,656.333 24,645.5C 17.5387,612.86 11.2054,580.193 5,547.5C 4.33333,531.167 4.33333,514.833 5,498.5C 11.9123,485.007 19.0789,471.674 26.5,458.5C 49.1677,458.666 71.8343,459.833 94.5,462C 118,483.5 141.5,505 165,526.5C 173.34,550.686 181.173,575.02 188.5,599.5C 195.426,596.969 202.426,594.636 209.5,592.5C 214.783,563.47 220.283,534.47 226,505.5C 255.69,481.302 285.19,456.969 314.5,432.5 Z M 55.5,495.5 C 59.1817,495.335 62.8484,495.501 66.5,496C 90.8333,508.833 115.167,521.667 139.5,534.5C 141.941,558.114 143.941,581.781 145.5,605.5C 145.43,606.772 145.097,607.938 144.5,609C 128.242,614.308 112.076,619.808 96,625.5C 88.0507,614.566 80.5507,603.4 73.5,592C 77.5681,580.132 81.4014,568.299 85,556.5C 66.9222,554.732 48.7555,553.398 30.5,552.5C 28.5711,552.54 26.7378,552.873 25,553.5C 24.3333,551.167 24.3333,548.833 25,546.5C 27.4462,541.275 29.6129,535.942 31.5,530.5C 28.1207,524.279 24.1207,518.446 19.5,513C 21.3285,508.183 23.1618,503.35 25,498.5C 35.2369,497.185 45.4036,496.185 55.5,495.5 Z M 24.5,556.5 C 28.8616,564.728 32.8616,573.228 36.5,582C 35.2682,589.225 33.7682,596.391 32,603.5C 29.6667,596.5 27.3333,589.5 25,582.5C 24.5002,573.84 24.3336,565.173 24.5,556.5 Z"/></g>
</svg>
